<svg xmlns="http://www.w3.org/2000/svg" width="64" height="64" viewBox="0 0 64 64">
  <rect width="64" height="64" rx="14" fill="#0d1b2a"/>
  <g transform="translate(9 9) scale(0.71875)" fill="none">
    <path d="M32 2 L39 25 L62 32 L39 39 L32 62 L25 39 L2 32 L25 25 Z M39.5 32 A7.5 7.5 0 1 1 24.5 32 A7.5 7.5 0 1 1 39.5 32 Z" fill="#ffffff" fill-rule="evenodd"/>
    <circle cx="32" cy="32" r="4.6" fill="none" stroke="#ffffff" stroke-width="1.7"/>
    <circle cx="32" cy="32" r="2.4" fill="#ffffff"/>
    <g stroke="#ffffff" stroke-width="2.6" stroke-linecap="round">
      <path d="M43.66 13.34 A22 22 0 0 1 50.66 20.34"/>
      <path d="M43.66 13.34 A22 22 0 0 1 50.66 20.34" transform="rotate(90 32 32)"/>
      <path d="M43.66 13.34 A22 22 0 0 1 50.66 20.34" transform="rotate(180 32 32)"/>
      <path d="M43.66 13.34 A22 22 0 0 1 50.66 20.34" transform="rotate(270 32 32)"/>
    </g>
  </g>
</svg>
